<svg width="205" height="49" viewBox="0 0 205 49" fill="none" xmlns="http://www.w3.org/2000/svg">
<path d="M29.0325 13.3568H15.3885V23.9881H29.0325V13.3568Z" fill="url(#paint0_linear_71_296)"/>
<path d="M24.283 0H7.47913V10.6313H24.283V0Z" fill="url(#paint1_linear_71_296)"/>
<path d="M37.0001 8.50253L32.6289 0H16.6798L18.7268 3.9703C18.735 3.98559 18.7388 3.99754 18.7464 4.01282L22.1543 10.6313L23.5582 13.3549L29.0327 23.9862L32.7937 16.6777C32.7975 16.6739 32.7975 16.6663 32.8014 16.6625L34.771 12.8317C34.775 12.8273 34.7777 12.8218 34.7786 12.8159L37.0001 8.50253Z" fill="url(#paint2_linear_71_296)"/>
<path d="M26.3882 29.1296L23.7401 23.9881L18.2656 13.3568L16.8579 10.6332L11.3834 0.00195312H4.12035L0 8.00036L2.48473 12.8317C2.48855 12.8394 2.49619 12.8508 2.50001 12.8589L18.6283 44.1961L21.1608 39.284C21.1684 39.2644 21.176 39.2491 21.1842 39.2295L24.852 32.1069C24.8587 32.0975 24.8639 32.087 24.8673 32.0759L26.3882 29.1296Z" fill="url(#paint3_linear_71_296)"/>
<g style="mix-blend-mode:screen" opacity="0.6">
<g style="mix-blend-mode:screen" opacity="0.6">
<path d="M21.1854 39.2295C20.7276 40.0361 20.274 40.8484 19.8245 41.6665L18.6381 43.822L16.8309 40.1579C16.1873 38.84 15.5245 37.5255 14.8613 36.2148L12.8649 32.2837L10.8446 28.3656L8.80141 24.4611C8.11907 23.1586 7.42096 21.8637 6.72333 20.5683C6.02569 19.2729 5.33762 17.9746 4.62948 16.6873C3.9199 15.412 3.22608 14.1285 2.50073 12.8608L18.6285 44.1961L21.161 39.2839C21.1696 39.2644 21.1772 39.2505 21.1854 39.2295Z" fill="white"/>
</g>
</g>
<g style="mix-blend-mode:multiply" opacity="0.35">
<g style="mix-blend-mode:multiply" opacity="0.35">
<path d="M23.7407 23.988H23.9964L22.8759 21.724L21.0381 18.0638L19.1775 14.4151L18.6279 13.3567H18.2638L16.8561 10.6331H17.2207L15.3983 7.14731C14.1559 4.75147 12.8591 2.38239 11.5833 0.00183105H5.34424C6.05382 0.0328901 6.7634 0.0558258 7.4768 0.0754169L8.36461 0.0988321C9.33413 0.125591 10.3032 0.16047 11.2727 0.176238C12.4706 2.59168 13.6456 5.01905 14.8669 7.41871L16.503 10.6331L16.7238 11.0713L17.8988 13.3586L18.5926 14.7157L20.4848 18.3472L22.3923 21.9725L23.4741 23.9885L24.3309 25.582C24.968 26.7687 25.6129 27.9526 26.2656 29.1338C25.7925 30.1104 25.326 31.0913 24.866 32.0762L26.386 29.1299L23.7407 23.988Z" fill="black"/>
</g>
</g>
<g style="mix-blend-mode:screen" opacity="0.4">
<g style="mix-blend-mode:screen" opacity="0.4">
<path d="M32.7938 16.6796C32.4434 17.2689 32.1047 17.8595 31.7779 18.4514L30.7658 20.2505C30.1842 21.3017 29.609 22.355 29.0404 23.4103C29.0366 23.4065 29.0366 23.3989 29.0328 23.3951C28.2806 21.8714 27.5161 20.3516 26.7392 18.8356L25.4519 16.3346L24.1493 13.8375C24.0638 13.6788 23.9787 13.5159 23.8932 13.3568C23.4154 12.4457 22.9308 11.5378 22.4396 10.6331C22.1252 10.0478 21.8075 9.46628 21.4897 8.88045C21.0358 8.05859 20.5861 7.23672 20.1207 6.41867C19.6553 5.60062 19.2019 4.78257 18.725 3.97217C18.7331 3.98746 18.7369 3.9994 18.7446 4.01469L22.1525 10.6331L23.5563 13.3568L29.0308 23.988L32.7938 16.6796Z" fill="white"/>
</g>
</g>
<g style="mix-blend-mode:multiply" opacity="0.35">
<g style="mix-blend-mode:multiply" opacity="0.35">
<path d="M37.0001 8.50253L32.6289 0H20.6616C21.6584 0.0659407 22.6547 0.0955658 23.6509 0.147172C24.6515 0.185876 25.6478 0.220756 26.6441 0.242736C27.6403 0.264717 28.6371 0.285266 29.6334 0.297212C30.5642 0.316325 31.4907 0.316323 32.4253 0.320146C32.7546 0.975731 33.0919 1.62319 33.4288 2.27065L34.5378 4.39127C35.2665 5.7679 36.0072 7.14405 36.7593 8.50874C36.4248 9.20685 36.0965 9.90496 35.7745 10.6112C35.44 11.348 35.0959 12.0729 34.7782 12.8173L37.0001 8.50253Z" fill="black"/>
</g>
</g>
<g style="mix-blend-mode:overlay" opacity="0.16">
<g style="mix-blend-mode:overlay" opacity="0.16">
<path d="M35.6934 8.50255L32.9641 3.19861C31.6419 7.45944 29.6412 12.8914 26.962 17.428L29.0325 21.4484L31.7231 16.2181L31.7853 16.027L31.855 15.961L35.6934 8.50255Z" fill="white"/>
</g>
</g>
<g style="mix-blend-mode:overlay" opacity="0.3">
<g style="mix-blend-mode:overlay" opacity="0.3">
<path d="M25.0811 29.1296L22.1926 23.5189C18.7522 26.5976 14.6051 27.6249 9.76233 24.4301L18.628 41.6569L20.1093 38.7875L20.1289 38.7331L20.148 38.6982L23.8316 31.5451L25.0811 29.1296Z" fill="white"/>
</g>
</g>
<path d="M38.68 42V24.72H45.976C46.144 24.72 46.368 24.728 46.648 24.744C46.936 24.752 47.192 24.776 47.416 24.816C48.448 24.976 49.292 25.316 49.948 25.836C50.612 26.356 51.1 27.012 51.412 27.804C51.724 28.588 51.88 29.464 51.88 30.432C51.88 31.4 51.72 32.28 51.4 33.072C51.088 33.856 50.6 34.508 49.936 35.028C49.28 35.548 48.44 35.888 47.416 36.048C47.192 36.08 46.936 36.104 46.648 36.12C46.36 36.136 46.136 36.144 45.976 36.144H41.944V42H38.68ZM41.944 33.096H45.832C46 33.096 46.184 33.088 46.384 33.072C46.584 33.056 46.768 33.024 46.936 32.976C47.376 32.856 47.716 32.656 47.956 32.376C48.196 32.088 48.36 31.772 48.448 31.428C48.544 31.076 48.592 30.744 48.592 30.432C48.592 30.12 48.544 29.792 48.448 29.448C48.36 29.096 48.196 28.78 47.956 28.5C47.716 28.212 47.376 28.008 46.936 27.888C46.768 27.84 46.584 27.808 46.384 27.792C46.184 27.776 46 27.768 45.832 27.768H41.944V33.096ZM59.1134 42.384C58.0974 42.384 57.2694 42.212 56.6294 41.868C55.9894 41.524 55.4894 41.088 55.1294 40.56C54.7774 40.032 54.5254 39.484 54.3734 38.916C54.2214 38.34 54.1294 37.816 54.0974 37.344C54.0654 36.872 54.0494 36.528 54.0494 36.312V29.04H57.3614V35.16C57.3614 35.456 57.3774 35.836 57.4094 36.3C57.4414 36.756 57.5414 37.216 57.7094 37.68C57.8774 38.144 58.1494 38.532 58.5254 38.844C58.9094 39.156 59.4494 39.312 60.1454 39.312C60.4254 39.312 60.7254 39.268 61.0454 39.18C61.3654 39.092 61.6654 38.924 61.9454 38.676C62.2254 38.42 62.4534 38.048 62.6294 37.56C62.8134 37.064 62.9054 36.416 62.9054 35.616L64.7774 36.504C64.7774 37.528 64.5694 38.488 64.1534 39.384C63.7374 40.28 63.1094 41.004 62.2694 41.556C61.4374 42.108 60.3854 42.384 59.1134 42.384ZM63.3134 42V37.704H62.9054V29.04H66.1934V42H63.3134ZM74.6112 42.36C72.9792 42.36 71.6592 41.992 70.6512 41.256C69.6512 40.512 69.0432 39.464 68.8272 38.112L72.1632 37.608C72.2992 38.216 72.5992 38.692 73.0632 39.036C73.5352 39.38 74.1312 39.552 74.8512 39.552C75.4432 39.552 75.8992 39.44 76.2192 39.216C76.5392 38.984 76.6992 38.664 76.6992 38.256C76.6992 38 76.6352 37.796 76.5072 37.644C76.3792 37.484 76.0912 37.328 75.6432 37.176C75.2032 37.024 74.5152 36.824 73.5792 36.576C72.5232 36.304 71.6792 36 71.0472 35.664C70.4152 35.328 69.9592 34.928 69.6792 34.464C69.3992 33.992 69.2592 33.424 69.2592 32.76C69.2592 31.928 69.4712 31.208 69.8952 30.6C70.3192 29.984 70.9152 29.512 71.6832 29.184C72.4592 28.848 73.3712 28.68 74.4192 28.68C75.4352 28.68 76.3352 28.836 77.1192 29.148C77.9032 29.46 78.5352 29.904 79.0152 30.48C79.5032 31.056 79.8032 31.736 79.9152 32.52L76.5792 33.12C76.5232 32.64 76.3152 32.26 75.9552 31.98C75.5952 31.7 75.1072 31.536 74.4912 31.488C73.8912 31.448 73.4072 31.528 73.0392 31.728C72.6792 31.928 72.4992 32.216 72.4992 32.592C72.4992 32.816 72.5752 33.004 72.7272 33.156C72.8872 33.308 73.2112 33.464 73.6992 33.624C74.1952 33.784 74.9472 33.992 75.9552 34.248C76.9392 34.504 77.7272 34.804 78.3192 35.148C78.9192 35.484 79.3552 35.892 79.6272 36.372C79.8992 36.844 80.0352 37.416 80.0352 38.088C80.0352 39.416 79.5552 40.46 78.5952 41.22C77.6352 41.98 76.3072 42.36 74.6112 42.36ZM86.2722 42.36C85.3442 42.36 84.5562 42.184 83.9082 41.832C83.2682 41.472 82.7802 40.996 82.4442 40.404C82.1162 39.804 81.9522 39.144 81.9522 38.424C81.9522 37.824 82.0442 37.276 82.2282 36.78C82.4122 36.284 82.7082 35.848 83.1162 35.472C83.5322 35.088 84.0882 34.768 84.7842 34.512C85.2642 34.336 85.8362 34.18 86.5002 34.044C87.1642 33.908 87.9162 33.78 88.7562 33.66C89.5962 33.532 90.5202 33.392 91.5282 33.24L90.3522 33.888C90.3522 33.12 90.1682 32.556 89.8002 32.196C89.4322 31.836 88.8162 31.656 87.9522 31.656C87.4722 31.656 86.9722 31.772 86.4522 32.004C85.9322 32.236 85.5682 32.648 85.3602 33.24L82.4082 32.304C82.7362 31.232 83.3522 30.36 84.2562 29.688C85.1602 29.016 86.3922 28.68 87.9522 28.68C89.0962 28.68 90.1122 28.856 91.0002 29.208C91.8882 29.56 92.5602 30.168 93.0162 31.032C93.2722 31.512 93.4242 31.992 93.4722 32.472C93.5202 32.952 93.5442 33.488 93.5442 34.08V42H90.6882V39.336L91.0962 39.888C90.4642 40.76 89.7802 41.392 89.0442 41.784C88.3162 42.168 87.3922 42.36 86.2722 42.36ZM86.9682 39.792C87.5682 39.792 88.0722 39.688 88.4802 39.48C88.8962 39.264 89.2242 39.02 89.4642 38.748C89.7122 38.476 89.8802 38.248 89.9682 38.064C90.1362 37.712 90.2322 37.304 90.2562 36.84C90.2882 36.368 90.3042 35.976 90.3042 35.664L91.2642 35.904C90.2962 36.064 89.5122 36.2 88.9122 36.312C88.3122 36.416 87.8282 36.512 87.4602 36.6C87.0922 36.688 86.7682 36.784 86.4882 36.888C86.1682 37.016 85.9082 37.156 85.7082 37.308C85.5162 37.452 85.3722 37.612 85.2762 37.788C85.1882 37.964 85.1442 38.16 85.1442 38.376C85.1442 38.672 85.2162 38.928 85.3602 39.144C85.5122 39.352 85.7242 39.512 85.9962 39.624C86.2682 39.736 86.5922 39.792 86.9682 39.792ZM96.6404 42L96.6644 24.72H99.9764V35.28L104.368 29.04H108.4L103.72 35.52L108.712 42H104.464L99.9764 35.76V42H96.6404ZM113.507 42.36C112.579 42.36 111.791 42.184 111.143 41.832C110.503 41.472 110.015 40.996 109.679 40.404C109.351 39.804 109.187 39.144 109.187 38.424C109.187 37.824 109.279 37.276 109.463 36.78C109.647 36.284 109.943 35.848 110.351 35.472C110.767 35.088 111.323 34.768 112.019 34.512C112.499 34.336 113.071 34.18 113.735 34.044C114.399 33.908 115.151 33.78 115.991 33.66C116.831 33.532 117.755 33.392 118.763 33.24L117.587 33.888C117.587 33.12 117.403 32.556 117.035 32.196C116.667 31.836 116.051 31.656 115.187 31.656C114.707 31.656 114.207 31.772 113.687 32.004C113.167 32.236 112.803 32.648 112.595 33.24L109.643 32.304C109.971 31.232 110.587 30.36 111.491 29.688C112.395 29.016 113.627 28.68 115.187 28.68C116.331 28.68 117.347 28.856 118.235 29.208C119.123 29.56 119.795 30.168 120.251 31.032C120.507 31.512 120.659 31.992 120.707 32.472C120.755 32.952 120.779 33.488 120.779 34.08V42H117.923V39.336L118.331 39.888C117.699 40.76 117.015 41.392 116.279 41.784C115.551 42.168 114.627 42.36 113.507 42.36ZM114.203 39.792C114.803 39.792 115.307 39.688 115.715 39.48C116.131 39.264 116.459 39.02 116.699 38.748C116.947 38.476 117.115 38.248 117.203 38.064C117.371 37.712 117.467 37.304 117.491 36.84C117.523 36.368 117.539 35.976 117.539 35.664L118.499 35.904C117.531 36.064 116.747 36.2 116.147 36.312C115.547 36.416 115.063 36.512 114.695 36.6C114.327 36.688 114.003 36.784 113.723 36.888C113.403 37.016 113.143 37.156 112.943 37.308C112.751 37.452 112.607 37.612 112.511 37.788C112.423 37.964 112.379 38.16 112.379 38.376C112.379 38.672 112.451 38.928 112.595 39.144C112.747 39.352 112.959 39.512 113.231 39.624C113.503 39.736 113.827 39.792 114.203 39.792Z" fill="#ED6D45"/>
<path d="M128.943 42V24.72H132.207V42H128.943ZM144.637 42V35.88C144.637 35.584 144.621 35.208 144.589 34.752C144.557 34.288 144.457 33.824 144.289 33.36C144.121 32.896 143.845 32.508 143.461 32.196C143.085 31.884 142.549 31.728 141.853 31.728C141.573 31.728 141.273 31.772 140.953 31.86C140.633 31.948 140.333 32.12 140.053 32.376C139.773 32.624 139.541 32.992 139.357 33.48C139.181 33.968 139.093 34.616 139.093 35.424L137.221 34.536C137.221 33.512 137.429 32.552 137.845 31.656C138.261 30.76 138.885 30.036 139.717 29.484C140.557 28.932 141.613 28.656 142.885 28.656C143.901 28.656 144.729 28.828 145.369 29.172C146.009 29.516 146.505 29.952 146.857 30.48C147.217 31.008 147.473 31.56 147.625 32.136C147.777 32.704 147.869 33.224 147.901 33.696C147.933 34.168 147.949 34.512 147.949 34.728V42H144.637ZM135.781 42V29.04H138.685V33.336H139.093V42H135.781ZM156.084 42.36C154.892 42.36 153.848 42.06 152.952 41.46C152.056 40.86 151.356 40.044 150.852 39.012C150.356 37.98 150.108 36.816 150.108 35.52C150.108 34.2 150.36 33.028 150.864 32.004C151.376 30.972 152.092 30.16 153.012 29.568C153.932 28.976 155.012 28.68 156.252 28.68C157.484 28.68 158.52 28.98 159.36 29.58C160.2 30.18 160.836 30.996 161.268 32.028C161.7 33.06 161.916 34.224 161.916 35.52C161.916 36.816 161.696 37.98 161.256 39.012C160.824 40.044 160.176 40.86 159.312 41.46C158.448 42.06 157.372 42.36 156.084 42.36ZM156.612 39.456C157.34 39.456 157.92 39.292 158.352 38.964C158.792 38.636 159.108 38.176 159.3 37.584C159.492 36.992 159.588 36.304 159.588 35.52C159.588 34.736 159.492 34.048 159.3 33.456C159.108 32.864 158.8 32.404 158.376 32.076C157.96 31.748 157.412 31.584 156.732 31.584C156.004 31.584 155.404 31.764 154.932 32.124C154.468 32.476 154.124 32.952 153.9 33.552C153.676 34.144 153.564 34.8 153.564 35.52C153.564 36.248 153.672 36.912 153.888 37.512C154.104 38.104 154.436 38.576 154.884 38.928C155.332 39.28 155.908 39.456 156.612 39.456ZM159.588 42V33.12H159.18V24.72H162.468V42H159.588ZM169.428 42.36C168.5 42.36 167.712 42.184 167.064 41.832C166.424 41.472 165.936 40.996 165.6 40.404C165.272 39.804 165.108 39.144 165.108 38.424C165.108 37.824 165.2 37.276 165.384 36.78C165.568 36.284 165.864 35.848 166.272 35.472C166.688 35.088 167.244 34.768 167.94 34.512C168.42 34.336 168.992 34.18 169.656 34.044C170.32 33.908 171.072 33.78 171.912 33.66C172.752 33.532 173.676 33.392 174.684 33.24L173.508 33.888C173.508 33.12 173.324 32.556 172.956 32.196C172.588 31.836 171.972 31.656 171.108 31.656C170.628 31.656 170.128 31.772 169.608 32.004C169.088 32.236 168.724 32.648 168.516 33.24L165.564 32.304C165.892 31.232 166.508 30.36 167.412 29.688C168.316 29.016 169.548 28.68 171.108 28.68C172.252 28.68 173.268 28.856 174.156 29.208C175.044 29.56 175.716 30.168 176.172 31.032C176.428 31.512 176.58 31.992 176.628 32.472C176.676 32.952 176.7 33.488 176.7 34.08V42H173.844V39.336L174.252 39.888C173.62 40.76 172.936 41.392 172.2 41.784C171.472 42.168 170.548 42.36 169.428 42.36ZM170.124 39.792C170.724 39.792 171.228 39.688 171.636 39.48C172.052 39.264 172.38 39.02 172.62 38.748C172.868 38.476 173.036 38.248 173.124 38.064C173.292 37.712 173.388 37.304 173.412 36.84C173.444 36.368 173.46 35.976 173.46 35.664L174.42 35.904C173.452 36.064 172.668 36.2 172.068 36.312C171.468 36.416 170.984 36.512 170.616 36.6C170.248 36.688 169.924 36.784 169.644 36.888C169.324 37.016 169.064 37.156 168.864 37.308C168.672 37.452 168.528 37.612 168.432 37.788C168.344 37.964 168.3 38.16 168.3 38.376C168.3 38.672 168.372 38.928 168.516 39.144C168.668 39.352 168.88 39.512 169.152 39.624C169.424 39.736 169.748 39.792 170.124 39.792ZM187.597 42C186.701 42.168 185.821 42.24 184.957 42.216C184.101 42.2 183.333 42.052 182.653 41.772C181.981 41.484 181.469 41.024 181.117 40.392C180.797 39.8 180.629 39.2 180.613 38.592C180.597 37.976 180.589 37.28 180.589 36.504V25.44H183.853V36.312C183.853 36.816 183.857 37.272 183.865 37.68C183.881 38.08 183.965 38.4 184.117 38.64C184.405 39.096 184.865 39.344 185.497 39.384C186.129 39.424 186.829 39.392 187.597 39.288V42ZM178.381 31.56V29.04H187.597V31.56H178.381ZM195.309 42.384C194.293 42.384 193.465 42.212 192.825 41.868C192.185 41.524 191.685 41.088 191.325 40.56C190.973 40.032 190.721 39.484 190.569 38.916C190.417 38.34 190.325 37.816 190.293 37.344C190.261 36.872 190.245 36.528 190.245 36.312V29.04H193.557V35.16C193.557 35.456 193.573 35.836 193.605 36.3C193.637 36.756 193.737 37.216 193.905 37.68C194.073 38.144 194.345 38.532 194.721 38.844C195.105 39.156 195.645 39.312 196.341 39.312C196.621 39.312 196.921 39.268 197.241 39.18C197.561 39.092 197.861 38.924 198.141 38.676C198.421 38.42 198.649 38.048 198.825 37.56C199.009 37.064 199.101 36.416 199.101 35.616L200.973 36.504C200.973 37.528 200.765 38.488 200.349 39.384C199.933 40.28 199.305 41.004 198.465 41.556C197.633 42.108 196.581 42.384 195.309 42.384ZM199.509 42V37.704H199.101V29.04H202.389V42H199.509Z" fill="#964C9A"/>
<defs>
<linearGradient id="paint0_linear_71_296" x1="-47.7422" y1="203.891" x2="-34.0982" y2="203.891" gradientUnits="userSpaceOnUse">
<stop stop-color="#FC7300"/>
<stop offset="1" stop-color="#F8007A"/>
</linearGradient>
<linearGradient id="paint1_linear_71_296" x1="-55.653" y1="217.25" x2="-38.8492" y2="217.25" gradientUnits="userSpaceOnUse">
<stop stop-color="#FC7300"/>
<stop offset="1" stop-color="#F8007A"/>
</linearGradient>
<linearGradient id="paint2_linear_71_296" x1="-36.2951" y1="223.455" x2="-36.2951" y2="200.213" gradientUnits="userSpaceOnUse">
<stop stop-color="#EB643F"/>
<stop offset="1" stop-color="#964C9A"/>
</linearGradient>
<linearGradient id="paint3_linear_71_296" x1="-49.9267" y1="179.651" x2="-49.9267" y2="222.299" gradientUnits="userSpaceOnUse">
<stop stop-color="#EB643F"/>
<stop offset="1" stop-color="#964C9A"/>
</linearGradient>
</defs>
</svg>
