<svg width="37" height="45" viewBox="0 0 37 45" fill="none" xmlns="http://www.w3.org/2000/svg">
<path d="M29.0325 13.3568H15.3885V23.9881H29.0325V13.3568Z" fill="url(#paint0_linear_71_247)"/>
<path d="M24.283 0H7.47913V10.6313H24.283V0Z" fill="url(#paint1_linear_71_247)"/>
<path d="M37.0001 8.50253L32.6289 0H16.6798L18.7268 3.9703C18.735 3.98559 18.7388 3.99754 18.7464 4.01282L22.1543 10.6313L23.5582 13.3549L29.0327 23.9862L32.7937 16.6777C32.7975 16.6739 32.7975 16.6663 32.8014 16.6625L34.771 12.8317C34.775 12.8273 34.7777 12.8218 34.7786 12.8159L37.0001 8.50253Z" fill="url(#paint2_linear_71_247)"/>
<path d="M26.3882 29.1296L23.7401 23.9881L18.2656 13.3568L16.8579 10.6332L11.3834 0.00195312H4.12035L0 8.00036L2.48473 12.8317C2.48855 12.8394 2.49619 12.8508 2.50001 12.8589L18.6283 44.1961L21.1608 39.284C21.1684 39.2644 21.176 39.2491 21.1842 39.2295L24.852 32.1069C24.8587 32.0975 24.8639 32.087 24.8673 32.0759L26.3882 29.1296Z" fill="url(#paint3_linear_71_247)"/>
<g style="mix-blend-mode:screen" opacity="0.6">
<g style="mix-blend-mode:screen" opacity="0.6">
<path d="M21.1854 39.2295C20.7276 40.0361 20.274 40.8484 19.8245 41.6665L18.6381 43.822L16.8309 40.1579C16.1873 38.84 15.5245 37.5255 14.8613 36.2148L12.8649 32.2837L10.8446 28.3656L8.80141 24.4611C8.11907 23.1586 7.42096 21.8637 6.72333 20.5683C6.02569 19.2729 5.33762 17.9746 4.62948 16.6873C3.9199 15.412 3.22608 14.1285 2.50073 12.8608L18.6285 44.1961L21.161 39.2839C21.1696 39.2644 21.1772 39.2505 21.1854 39.2295Z" fill="white"/>
</g>
</g>
<g style="mix-blend-mode:multiply" opacity="0.35">
<g style="mix-blend-mode:multiply" opacity="0.35">
<path d="M23.7407 23.988H23.9964L22.8759 21.724L21.0381 18.0638L19.1775 14.4151L18.6279 13.3567H18.2638L16.8561 10.6331H17.2207L15.3983 7.14731C14.1559 4.75147 12.8591 2.38239 11.5833 0.00183105H5.34424C6.05382 0.0328901 6.7634 0.0558258 7.4768 0.0754169L8.36461 0.0988321C9.33413 0.125591 10.3032 0.16047 11.2727 0.176238C12.4706 2.59168 13.6456 5.01905 14.8669 7.41871L16.503 10.6331L16.7238 11.0713L17.8988 13.3586L18.5926 14.7157L20.4848 18.3472L22.3923 21.9725L23.4741 23.9885L24.3309 25.582C24.968 26.7687 25.6129 27.9526 26.2656 29.1338C25.7925 30.1104 25.326 31.0913 24.866 32.0762L26.386 29.1299L23.7407 23.988Z" fill="black"/>
</g>
</g>
<g style="mix-blend-mode:screen" opacity="0.4">
<g style="mix-blend-mode:screen" opacity="0.4">
<path d="M32.7938 16.6796C32.4434 17.2689 32.1047 17.8595 31.7779 18.4514L30.7658 20.2505C30.1842 21.3017 29.609 22.355 29.0404 23.4103C29.0366 23.4065 29.0366 23.3989 29.0328 23.3951C28.2806 21.8714 27.5161 20.3516 26.7392 18.8356L25.4519 16.3346L24.1493 13.8375C24.0638 13.6788 23.9787 13.5159 23.8932 13.3568C23.4154 12.4457 22.9308 11.5378 22.4396 10.6331C22.1252 10.0478 21.8075 9.46628 21.4897 8.88045C21.0358 8.05859 20.5861 7.23672 20.1207 6.41867C19.6553 5.60062 19.2019 4.78257 18.725 3.97217C18.7331 3.98746 18.7369 3.9994 18.7446 4.01469L22.1525 10.6331L23.5563 13.3568L29.0308 23.988L32.7938 16.6796Z" fill="white"/>
</g>
</g>
<g style="mix-blend-mode:multiply" opacity="0.35">
<g style="mix-blend-mode:multiply" opacity="0.35">
<path d="M37.0001 8.50253L32.6289 0H20.6616C21.6584 0.0659407 22.6547 0.0955658 23.6509 0.147172C24.6515 0.185876 25.6478 0.220756 26.6441 0.242736C27.6403 0.264717 28.6371 0.285266 29.6334 0.297212C30.5642 0.316325 31.4907 0.316323 32.4253 0.320146C32.7546 0.975731 33.0919 1.62319 33.4288 2.27065L34.5378 4.39127C35.2665 5.7679 36.0072 7.14405 36.7593 8.50874C36.4248 9.20685 36.0965 9.90496 35.7745 10.6112C35.44 11.348 35.0959 12.0729 34.7782 12.8173L37.0001 8.50253Z" fill="black"/>
</g>
</g>
<g style="mix-blend-mode:overlay" opacity="0.16">
<g style="mix-blend-mode:overlay" opacity="0.16">
<path d="M35.6934 8.50255L32.9641 3.19861C31.6419 7.45944 29.6412 12.8914 26.962 17.428L29.0325 21.4484L31.7231 16.2181L31.7853 16.027L31.855 15.961L35.6934 8.50255Z" fill="white"/>
</g>
</g>
<g style="mix-blend-mode:overlay" opacity="0.3">
<g style="mix-blend-mode:overlay" opacity="0.3">
<path d="M25.0811 29.1296L22.1926 23.5189C18.7522 26.5976 14.6051 27.6249 9.76233 24.4301L18.628 41.6569L20.1093 38.7875L20.1289 38.7331L20.148 38.6982L23.8316 31.5451L25.0811 29.1296Z" fill="white"/>
</g>
</g>
<defs>
<linearGradient id="paint0_linear_71_247" x1="-47.7422" y1="203.891" x2="-34.0982" y2="203.891" gradientUnits="userSpaceOnUse">
<stop stop-color="#FC7300"/>
<stop offset="1" stop-color="#F8007A"/>
</linearGradient>
<linearGradient id="paint1_linear_71_247" x1="-55.653" y1="217.25" x2="-38.8492" y2="217.25" gradientUnits="userSpaceOnUse">
<stop stop-color="#FC7300"/>
<stop offset="1" stop-color="#F8007A"/>
</linearGradient>
<linearGradient id="paint2_linear_71_247" x1="-36.2951" y1="223.455" x2="-36.2951" y2="200.213" gradientUnits="userSpaceOnUse">
<stop stop-color="#EB643F"/>
<stop offset="1" stop-color="#964C9A"/>
</linearGradient>
<linearGradient id="paint3_linear_71_247" x1="-49.9267" y1="179.651" x2="-49.9267" y2="222.299" gradientUnits="userSpaceOnUse">
<stop stop-color="#EB643F"/>
<stop offset="1" stop-color="#964C9A"/>
</linearGradient>
</defs>
</svg>
